<?xml version="1.0" encoding="UTF-8" standalone="no"?>
<!-- Created with Inkscape (http://www.inkscape.org/) -->

<svg
   width="100"
   height="100"
   viewBox="0 0 100 100"
   version="1.1"
   id="svg1"
   inkscape:version="1.4.2 (f4327f4, 2025-05-13)"
   sodipodi:docname="l.svg"
   xmlns:inkscape="http://www.inkscape.org/namespaces/inkscape"
   xmlns:sodipodi="http://sodipodi.sourceforge.net/DTD/sodipodi-0.dtd"
   xmlns:xlink="http://www.w3.org/1999/xlink"
   xmlns="http://www.w3.org/2000/svg"
   xmlns:svg="http://www.w3.org/2000/svg">
  <sodipodi:namedview
     id="namedview1"
     pagecolor="#ffffff"
     bordercolor="#000000"
     borderopacity="0.25"
     inkscape:showpageshadow="2"
     inkscape:pageopacity="0.0"
     inkscape:pagecheckerboard="0"
     inkscape:deskcolor="#d1d1d1"
     inkscape:document-units="px"
     inkscape:zoom="4.035"
     inkscape:cx="51.053284"
     inkscape:cy="50.185874"
     inkscape:window-width="1920"
     inkscape:window-height="1009"
     inkscape:window-x="1912"
     inkscape:window-y="206"
     inkscape:window-maximized="1"
     inkscape:current-layer="layer1" />
  <defs
     id="defs1">
    <linearGradient
       id="linearGradient53"
       inkscape:collect="always">
      <stop
         style="stop-color:#0dc0fd;stop-opacity:1;"
         offset="0"
         id="stop53" />
      <stop
         style="stop-color:#d83bf2;stop-opacity:1;"
         offset="1"
         id="stop54" />
    </linearGradient>
    <linearGradient
       id="linearGradient51"
       inkscape:collect="always">
      <stop
         style="stop-color:#0dc0fd;stop-opacity:1;"
         offset="0"
         id="stop51" />
      <stop
         style="stop-color:#d83bf2;stop-opacity:1;"
         offset="1"
         id="stop52" />
    </linearGradient>
    <linearGradient
       inkscape:collect="always"
       xlink:href="#linearGradient51"
       id="linearGradient52"
       x1="26.60906"
       y1="66.996176"
       x2="76.104599"
       y2="66.996176"
       gradientUnits="userSpaceOnUse" />
    <linearGradient
       inkscape:collect="always"
       xlink:href="#linearGradient53"
       id="linearGradient54"
       x1="20"
       y1="51.619456"
       x2="82.666673"
       y2="51.619456"
       gradientUnits="userSpaceOnUse" />
  </defs>
  <g
     inkscape:label="Warstwa 1"
     inkscape:groupmode="layer"
     id="layer1">
    <path
       d="m 34.666669,18.863853 c -1.333335,1.600003 -1.333335,2.400004 0,4.000003 0.933331,1.066666 2.533334,2.000001 3.466665,2.000001 1.466669,0 1.866668,2.266666 1.866668,9.199998 0,9.066667 -0.133342,9.600004 -10.000003,26.399996 C 24.533336,69.93051 20,78.597193 20,79.797193 c 0,1.066659 1.066666,2.933329 2.4,4.13333 2.133336,2.000012 6.266668,2.266658 29.200003,2.266658 24.133334,0 26.800003,-0.266457 28.8,-2.4 1.333334,-1.333304 2.26667,-3.333317 2.26667,-4.399975 0,-1.066696 -4.933334,-9.200013 -10.800004,-17.866696 -10.8,-15.999988 -10.8,-15.999988 -11.466667,-26.133321 -0.533333,-9.6 -0.399999,-10.266667 2.266669,-10.933334 2.133332,-0.533333 2.799999,-1.599999 2.4,-3.866665 -0.400002,-2.933337 -0.933335,-3.066667 -14.533334,-3.466669 -11.333337,-0.266646 -14.400004,0 -15.866668,1.733332 z M 56.400003,32.063857 56.13332,43.130522 67.999989,60.863877 c 15.999999,23.866658 16.8,22.666658 -16.66667,22.666658 -33.066667,0 -32.133335,1.2 -18.666667,-21.866684 L 42.666655,44.730525 V 32.730524 20.863855 h 7.066666 6.933335 z"
       id="path1"
       style="stroke-width:0.133;fill-opacity:1;fill:url(#linearGradient54);stroke-dasharray:none;fill-rule:nonzero" />
    <path
       d="m 41.733334,52.597192 c -0.800001,0.533333 -4.8,6.666659 -8.933333,13.600014 -5.466667,9.333316 -6.933335,12.933316 -5.866665,14.266658 1.999997,2.533342 46.8,2.533342 48.800001,0 1.2,-1.333342 -0.399998,-4.666658 -6.399998,-13.599987 C 61.466671,54.99718 61.333337,54.99718 56.266669,55.263864 52.933337,55.530321 50.533337,54.997029 49.466667,53.663858 47.6,51.397192 44.266669,50.997189 41.733334,52.597192 Z"
       id="path2"
       style="stroke-width:0.133;fill-opacity:1;fill:url(#linearGradient52);stroke-dasharray:none;fill-rule:nonzero" />
  </g>
</svg>
