<?xml version="1.0" encoding="UTF-8" standalone="no"?>
<svg
   version="1.0"
   width="249.99998pt"
   height="249.99998pt"
   viewBox="0 0 249.99999 249.99999"
   preserveAspectRatio="xMidYMid"
   id="svg11"
   xmlns="http://www.w3.org/2000/svg"
   xmlns:svg="http://www.w3.org/2000/svg">
  <defs
     id="defs11" />
  <g
     transform="matrix(0.1,0,0,-0.1,0,250)"
     fill="#000000"
     stroke="none"
     id="g11"
     style="fill:#f9f9f9">
    <path
       d="m 1510,1475 c -10,-12 -10,-18 0,-30 7,-8 19,-15 26,-15 11,0 14,-17 14,-69 0,-68 -1,-72 -75,-198 -41,-71 -75,-136 -75,-145 0,-8 8,-22 18,-31 16,-15 47,-17 219,-17 181,0 201,2 216,18 10,10 17,25 17,33 0,8 -37,69 -81,134 -81,120 -81,120 -86,196 -4,72 -3,77 17,82 16,4 21,12 18,29 -3,22 -7,23 -109,26 -85,2 -108,0 -119,-13 z m 163,-99 -2,-83 89,-133 c 120,-179 126,-170 -125,-170 -248,0 -241,-9 -140,164 l 75,127 v 90 89 h 53 52 z"
       id="path1"
       style="fill:#f9f9f9" />
    <path
       d="m 1563,1222 c -6,-4 -36,-50 -67,-102 -41,-70 -52,-97 -44,-107 15,-19 351,-19 366,0 9,10 -3,35 -48,102 -59,89 -60,89 -98,87 -25,-2 -43,2 -51,12 -14,17 -39,20 -58,8 z"
       id="path2"
       style="fill:#f9f9f9" />
    <path
       d="m 302,1369 c -29,-15 -51,-36 -70,-68 -23,-40 -27,-57 -27,-126 0,-69 4,-86 27,-127 26,-43 90,-88 126,-88 17,0 15,25 -3,40 -22,18 -22,317 0,346 35,46 13,55 -53,23 z"
       id="path3"
       style="fill:#f9f9f9" />
    <path
       d="m 400,1378 c 0,-7 7,-22 15,-32 22,-29 22,-313 0,-342 -18,-23 -19,-44 -3,-44 36,0 100,45 126,88 23,41 27,58 27,127 0,69 -4,86 -27,127 -19,32 -41,52 -71,67 -50,24 -67,26 -67,9 z"
       id="path4"
       style="fill:#f9f9f9" />
    <path
       d="m 600,1369 c 0,-6 7,-17 15,-25 22,-22 22,-316 0,-338 -29,-29 -17,-36 65,-36 h 80 v 205 205 h -80 c -50,0 -80,-4 -80,-11 z"
       id="path5"
       style="fill:#f9f9f9" />
    <path
       d="m 790,1366 c 0,-7 7,-19 15,-26 12,-10 15,-42 15,-165 0,-123 -3,-155 -15,-165 -17,-14 -20,-40 -5,-40 19,0 84,30 104,48 70,62 75,224 9,303 -40,47 -123,77 -123,45 z"
       id="path6"
       style="fill:#f9f9f9" />
    <path
       d="m 994,1369 c -3,-6 0,-18 9,-26 8,-8 36,-95 63,-194 l 49,-179 h 32 c 30,0 33,4 43,43 6,23 15,56 19,72 6,22 0,60 -21,135 -23,80 -27,109 -19,122 6,10 11,22 11,28 0,14 -177,13 -186,-1 z"
       id="path7"
       style="fill:#f9f9f9" />
    <path
       d="m 1226,1306 -17,-75 26,-98 c 45,-168 42,-163 79,-163 31,0 33,1 48,68 l 17,67 -36,138 -36,137 h -32 c -31,0 -32,-1 -49,-74 z"
       id="path8"
       style="fill:#f9f9f9" />
    <path
       d="m 1370,1365 c 0,-7 8,-18 17,-23 15,-9 16,-16 5,-62 -14,-60 -16,-110 -4,-110 5,0 16,34 26,75 13,55 24,80 43,95 34,26 21,40 -38,40 -36,0 -49,-4 -49,-15 z"
       id="path9"
       style="fill:#f9f9f9" />
    <path
       d="m 1894,1369 c -4,-7 1,-16 10,-21 14,-8 16,-31 16,-173 0,-142 -2,-165 -16,-173 -35,-20 -2,-32 87,-32 91,0 104,6 74,36 -12,12 -15,46 -15,169 0,123 3,157 15,169 8,8 15,19 15,25 0,15 -177,15 -186,0 z"
       id="path10"
       style="fill:#f9f9f9" />
    <path
       d="m 2130,1367 c 0,-7 9,-18 20,-25 11,-7 20,-16 20,-21 0,-5 -20,-38 -45,-74 -25,-37 -45,-77 -45,-90 0,-13 9,-50 20,-82 14,-40 17,-62 10,-69 -5,-5 -10,-16 -10,-23 0,-10 24,-13 95,-13 98,0 110,6 82,39 -17,20 -97,227 -97,251 0,17 65,83 90,92 8,2 10,9 6,16 -10,17 -146,16 -146,-1 z"
       id="path11"
       style="fill:#f9f9f9" />
  </g>
</svg>
